{
    "asset" : {
        "generator" : "Khronos glTF Blender I/O v3.2.40",
        "version" : "2.0"
    },
    "scene" : 0,
    "scenes" : [
        {
            "name" : "Scene",
            "nodes" : [
                0
            ]
        }
    ],
    "nodes" : [
        {
            "mesh" : 0,
            "name" : "Suzanne",
            "rotation" : [
                0,
                0.00015039433492347598,
                0,
                1
            ],
            "translation" : [
                9.824206063058227e-05,
                0.06807816028594971,
                0.3266148567199707
            ]
        }
    ],
    "animations" : [
        {
            "channels" : [
                {
                    "sampler" : 0,
                    "target" : {
                        "node" : 0,
                        "path" : "rotation"
                    }
                }
            ],
            "name" : "SuzanneAction",
            "samplers" : [
                {
                    "input" : 4,
                    "interpolation" : "LINEAR",
                    "output" : 5
                }
            ]
        }
    ],
    "materials" : [
        {
            "doubleSided" : true,
            "name" : "Material.001",
            "pbrMetallicRoughness" : {
                "baseColorFactor" : [
                    0.8000000715255737,
                    0.2469327598810196,
                    0.7305431962013245,
                    1
                ],
                "metallicFactor" : 0.6228070259094238,
                "roughnessFactor" : 0.5
            }
        }
    ],
    "meshes" : [
        {
            "name" : "Suzanne",
            "primitives" : [
                {
                    "attributes" : {
                        "POSITION" : 0,
                        "NORMAL" : 1,
                        "TEXCOORD_0" : 2
                    },
                    "indices" : 3,
                    "material" : 0
                }
            ]
        }
    ],
    "accessors" : [
        {
            "bufferView" : 0,
            "componentType" : 5126,
            "count" : 7872,
            "max" : [
                1.325934886932373,
                0.8711580634117126,
                0.4957050681114197
            ],
            "min" : [
                -1.325934886932373,
                -1.0385642051696777,
                -1.1048810482025146
            ],
            "type" : "VEC3"
        },
        {
            "bufferView" : 1,
            "componentType" : 5126,
            "count" : 7872,
            "type" : "VEC3"
        },
        {
            "bufferView" : 2,
            "componentType" : 5126,
            "count" : 7872,
            "type" : "VEC2"
        },
        {
            "bufferView" : 3,
            "componentType" : 5123,
            "count" : 11808,
            "type" : "SCALAR"
        },
        {
            "bufferView" : 4,
            "componentType" : 5126,
            "count" : 251,
            "max" : [
                10.416666666666666
            ],
            "min" : [
                0
            ],
            "type" : "SCALAR"
        },
        {
            "bufferView" : 5,
            "componentType" : 5126,
            "count" : 251,
            "type" : "VEC4"
        }
    ],
    "bufferViews" : [
        {
            "buffer" : 0,
            "byteLength" : 94464,
            "byteOffset" : 0
        },
        {
            "buffer" : 0,
            "byteLength" : 94464,
            "byteOffset" : 94464
        },
        {
            "buffer" : 0,
            "byteLength" : 62976,
            "byteOffset" : 188928
        },
        {
            "buffer" : 0,
            "byteLength" : 23616,
            "byteOffset" : 251904
        },
        {
            "buffer" : 0,
            "byteLength" : 1004,
            "byteOffset" : 275520
        },
        {
            "buffer" : 0,
            "byteLength" : 4016,
            "byteOffset" : 276524
        }
    ],
    "buffers" : [
        {
            "byteLength" : 280540,
            "uri" : "data:application/octet-stream;base64,"
        }
    ]
}
