{
    "asset" : {
        "generator" : "Khronos glTF Blender I/O v3.2.40",
        "version" : "2.0"
    },
    "scene" : 0,
    "scenes" : [
        {
            "extras" : {
                "b_settings" : 1,
                "b_export" : 1,
                "export_path" : "/Users/ronn/Documents/FUN_PROJECTS/blender/room_aframe",
                "s_output" : "exporting..."
            },
            "name" : "Scene",
            "nodes" : [
                0
            ]
        }
    ],
    "nodes" : [
        {
            "mesh" : 0,
            "name" : "back.003",
            "rotation" : [
                0,
                -0.7071057558059692,
                0,
                0.7071077823638916
            ]
        }
    ],
    "meshes" : [
        {
            "name" : "Cube.010",
            "primitives" : [
                {
                    "attributes" : {
                        "POSITION" : 0,
                        "NORMAL" : 1,
                        "TANGENT" : 2,
                        "TEXCOORD_0" : 3
                    },
                    "indices" : 4
                }
            ]
        }
    ],
    "accessors" : [
        {
            "bufferView" : 0,
            "componentType" : 5126,
            "count" : 5632,
            "max" : [
                0.1778586506843567,
                0.24520069360733032,
                0.34707221388816833
            ],
            "min" : [
                -0.18423062562942505,
                -0.24691586196422577,
                -0.3470722734928131
            ],
            "type" : "VEC3"
        },
        {
            "bufferView" : 1,
            "componentType" : 5126,
            "count" : 5632,
            "type" : "VEC3"
        },
        {
            "bufferView" : 2,
            "componentType" : 5126,
            "count" : 5632,
            "type" : "VEC4"
        },
        {
            "bufferView" : 3,
            "componentType" : 5126,
            "count" : 5632,
            "type" : "VEC2"
        },
        {
            "bufferView" : 4,
            "componentType" : 5123,
            "count" : 8448,
            "type" : "SCALAR"
        }
    ],
    "bufferViews" : [
        {
            "buffer" : 0,
            "byteLength" : 67584,
            "byteOffset" : 0
        },
        {
            "buffer" : 0,
            "byteLength" : 67584,
            "byteOffset" : 67584
        },
        {
            "buffer" : 0,
            "byteLength" : 90112,
            "byteOffset" : 135168
        },
        {
            "buffer" : 0,
            "byteLength" : 45056,
            "byteOffset" : 225280
        },
        {
            "buffer" : 0,
            "byteLength" : 16896,
            "byteOffset" : 270336
        }
    ],
    "buffers" : [
        {
            "byteLength" : 287232,
            "uri" : "data:application/octet-stream;base64,"
        }
    ]
}
