{
    "asset" : {
        "generator" : "Khronos glTF Blender I/O v3.2.40",
        "version" : "2.0"
    },
    "scene" : 0,
    "scenes" : [
        {
            "extras" : {
                "b_settings" : 1,
                "b_export" : 1,
                "export_path" : "/Users/ronn/Documents/FUN_PROJECTS/blender/room_aframe",
                "s_output" : "exporting..."
            },
            "name" : "Scene",
            "nodes" : [
                0
            ]
        }
    ],
    "nodes" : [
        {
            "mesh" : 0,
            "name" : "carpet"
        }
    ],
    "materials" : [
        {
            "doubleSided" : true,
            "name" : "carpet",
            "pbrMetallicRoughness" : {
                "baseColorFactor" : [
                    0.2544392943382263,
                    0.8000000715255737,
                    0.13129274547100067,
                    1
                ],
                "metallicFactor" : 0,
                "roughnessFactor" : 0.5
            }
        }
    ],
    "meshes" : [
        {
            "name" : "Cube.002",
            "primitives" : [
                {
                    "attributes" : {
                        "POSITION" : 0,
                        "NORMAL" : 1,
                        "TANGENT" : 2,
                        "TEXCOORD_0" : 3
                    },
                    "indices" : 4,
                    "material" : 0
                }
            ]
        }
    ],
    "accessors" : [
        {
            "bufferView" : 0,
            "componentType" : 5126,
            "count" : 1024,
            "max" : [
                0.805984377861023,
                0.014999998733401299,
                0.8125842809677124
            ],
            "min" : [
                -0.8231825828552246,
                -0.014999998733401299,
                -0.8165825605392456
            ],
            "type" : "VEC3"
        },
        {
            "bufferView" : 1,
            "componentType" : 5126,
            "count" : 1024,
            "type" : "VEC3"
        },
        {
            "bufferView" : 2,
            "componentType" : 5126,
            "count" : 1024,
            "type" : "VEC4"
        },
        {
            "bufferView" : 3,
            "componentType" : 5126,
            "count" : 1024,
            "type" : "VEC2"
        },
        {
            "bufferView" : 4,
            "componentType" : 5123,
            "count" : 1536,
            "type" : "SCALAR"
        }
    ],
    "bufferViews" : [
        {
            "buffer" : 0,
            "byteLength" : 12288,
            "byteOffset" : 0
        },
        {
            "buffer" : 0,
            "byteLength" : 12288,
            "byteOffset" : 12288
        },
        {
            "buffer" : 0,
            "byteLength" : 16384,
            "byteOffset" : 24576
        },
        {
            "buffer" : 0,
            "byteLength" : 8192,
            "byteOffset" : 40960
        },
        {
            "buffer" : 0,
            "byteLength" : 3072,
            "byteOffset" : 49152
        }
    ],
    "buffers" : [
        {
            "byteLength" : 52224,
            "uri" : "data:application/octet-stream;base64,"
        }
    ]
}
