{
    "asset" : {
        "generator" : "Khronos glTF Blender I/O v3.2.40",
        "version" : "2.0"
    },
    "scene" : 0,
    "scenes" : [
        {
            "extras" : {
                "b_settings" : 1,
                "b_export" : 1,
                "export_path" : "/Users/ronn/Documents/FUN_PROJECTS/blender/room_aframe",
                "s_output" : "exporting..."
            },
            "name" : "Scene",
            "nodes" : [
                0
            ]
        }
    ],
    "nodes" : [
        {
            "mesh" : 0,
            "name" : "couch"
        }
    ],
    "materials" : [
        {
            "doubleSided" : true,
            "name" : "Material.001",
            "pbrMetallicRoughness" : {
                "baseColorFactor" : [
                    0.8000000715255737,
                    0.3264540135860443,
                    0.2868799865245819,
                    1
                ],
                "metallicFactor" : 0,
                "roughnessFactor" : 0.5
            }
        }
    ],
    "meshes" : [
        {
            "name" : "Plane",
            "primitives" : [
                {
                    "attributes" : {
                        "POSITION" : 0,
                        "NORMAL" : 1,
                        "TANGENT" : 2,
                        "TEXCOORD_0" : 3
                    },
                    "indices" : 4,
                    "material" : 0
                }
            ]
        }
    ],
    "accessors" : [
        {
            "bufferView" : 0,
            "componentType" : 5126,
            "count" : 1923,
            "max" : [
                0.528006374835968,
                0.35222163796424866,
                0.9504886269569397
            ],
            "min" : [
                -0.371993750333786,
                -0.2649860978126526,
                -0.9495115876197815
            ],
            "type" : "VEC3"
        },
        {
            "bufferView" : 1,
            "componentType" : 5126,
            "count" : 1923,
            "type" : "VEC3"
        },
        {
            "bufferView" : 2,
            "componentType" : 5126,
            "count" : 1923,
            "type" : "VEC4"
        },
        {
            "bufferView" : 3,
            "componentType" : 5126,
            "count" : 1923,
            "type" : "VEC2"
        },
        {
            "bufferView" : 4,
            "componentType" : 5123,
            "count" : 3264,
            "type" : "SCALAR"
        }
    ],
    "bufferViews" : [
        {
            "buffer" : 0,
            "byteLength" : 23076,
            "byteOffset" : 0
        },
        {
            "buffer" : 0,
            "byteLength" : 23076,
            "byteOffset" : 23076
        },
        {
            "buffer" : 0,
            "byteLength" : 30768,
            "byteOffset" : 46152
        },
        {
            "buffer" : 0,
            "byteLength" : 15384,
            "byteOffset" : 76920
        },
        {
            "buffer" : 0,
            "byteLength" : 6528,
            "byteOffset" : 92304
        }
    ],
    "buffers" : [
        {
            "byteLength" : 98832,
            "uri" : "data:application/octet-stream;base64,"
        }
    ]
}
