{
    "asset" : {
        "generator" : "Khronos glTF Blender I/O v3.2.40",
        "version" : "2.0"
    },
    "scene" : 0,
    "scenes" : [
        {
            "extras" : {
                "b_settings" : 1,
                "b_export" : 1,
                "export_path" : "/Users/ronn/Documents/FUN_PROJECTS/blender/room_aframe",
                "s_output" : "exporting..."
            },
            "name" : "Scene",
            "nodes" : [
                0
            ]
        }
    ],
    "nodes" : [
        {
            "mesh" : 0,
            "name" : "Cube.002"
        }
    ],
    "materials" : [
        {
            "doubleSided" : true,
            "name" : "Material.003",
            "pbrMetallicRoughness" : {
                "baseColorFactor" : [
                    0.8000000715255737,
                    0.7412967085838318,
                    0.45426812767982483,
                    1
                ],
                "metallicFactor" : 0,
                "roughnessFactor" : 0.5
            }
        }
    ],
    "meshes" : [
        {
            "name" : "Cube.023",
            "primitives" : [
                {
                    "attributes" : {
                        "POSITION" : 0,
                        "NORMAL" : 1,
                        "TANGENT" : 2,
                        "TEXCOORD_0" : 3
                    },
                    "indices" : 4,
                    "material" : 0
                }
            ]
        }
    ],
    "accessors" : [
        {
            "bufferView" : 0,
            "componentType" : 5126,
            "count" : 30942,
            "max" : [
                0.6070449948310852,
                0.08528918772935867,
                0.3503100275993347
            ],
            "min" : [
                -0.6298066973686218,
                -0.1659557968378067,
                -0.3496899902820587
            ],
            "type" : "VEC3"
        },
        {
            "bufferView" : 1,
            "componentType" : 5126,
            "count" : 30942,
            "type" : "VEC3"
        },
        {
            "bufferView" : 2,
            "componentType" : 5126,
            "count" : 30942,
            "type" : "VEC4"
        },
        {
            "bufferView" : 3,
            "componentType" : 5126,
            "count" : 30942,
            "type" : "VEC2"
        },
        {
            "bufferView" : 4,
            "componentType" : 5123,
            "count" : 46464,
            "type" : "SCALAR"
        }
    ],
    "bufferViews" : [
        {
            "buffer" : 0,
            "byteLength" : 371304,
            "byteOffset" : 0
        },
        {
            "buffer" : 0,
            "byteLength" : 371304,
            "byteOffset" : 371304
        },
        {
            "buffer" : 0,
            "byteLength" : 495072,
            "byteOffset" : 742608
        },
        {
            "buffer" : 0,
            "byteLength" : 247536,
            "byteOffset" : 1237680
        },
        {
            "buffer" : 0,
            "byteLength" : 92928,
            "byteOffset" : 1485216
        }
    ],
    "buffers" : [
        {
            "byteLength" : 1578144,
            "uri" : "data:application/octet-stream;base64,"
        }
    ]
}
