{
    "asset" : {
        "generator" : "Khronos glTF Blender I/O v3.2.40",
        "version" : "2.0"
    },
    "scene" : 0,
    "scenes" : [
        {
            "extras" : {
                "b_settings" : 1,
                "b_export" : 1,
                "export_path" : "/Users/ronn/Documents/FUN_PROJECTS/blender/room_aframe",
                "s_output" : "exporting..."
            },
            "name" : "Scene",
            "nodes" : [
                0
            ]
        }
    ],
    "nodes" : [
        {
            "mesh" : 0,
            "name" : "CURTAIN ROD"
        }
    ],
    "meshes" : [
        {
            "name" : "Cylinder.001",
            "primitives" : [
                {
                    "attributes" : {
                        "POSITION" : 0,
                        "NORMAL" : 1,
                        "TANGENT" : 2,
                        "TEXCOORD_0" : 3
                    },
                    "indices" : 4
                }
            ]
        }
    ],
    "accessors" : [
        {
            "bufferView" : 0,
            "componentType" : 5126,
            "count" : 6799,
            "max" : [
                0.040476854890584946,
                0.04224490001797676,
                0.6902347207069397
            ],
            "min" : [
                -0.04651375487446785,
                -0.044745467603206635,
                -0.6902347207069397
            ],
            "type" : "VEC3"
        },
        {
            "bufferView" : 1,
            "componentType" : 5126,
            "count" : 6799,
            "type" : "VEC3"
        },
        {
            "bufferView" : 2,
            "componentType" : 5126,
            "count" : 6799,
            "type" : "VEC4"
        },
        {
            "bufferView" : 3,
            "componentType" : 5126,
            "count" : 6799,
            "type" : "VEC2"
        },
        {
            "bufferView" : 4,
            "componentType" : 5123,
            "count" : 10272,
            "type" : "SCALAR"
        }
    ],
    "bufferViews" : [
        {
            "buffer" : 0,
            "byteLength" : 81588,
            "byteOffset" : 0
        },
        {
            "buffer" : 0,
            "byteLength" : 81588,
            "byteOffset" : 81588
        },
        {
            "buffer" : 0,
            "byteLength" : 108784,
            "byteOffset" : 163176
        },
        {
            "buffer" : 0,
            "byteLength" : 54392,
            "byteOffset" : 271960
        },
        {
            "buffer" : 0,
            "byteLength" : 20544,
            "byteOffset" : 326352
        }
    ],
    "buffers" : [
        {
            "byteLength" : 346896,
            "uri" : "data:application/octet-stream;base64,"
        }
    ]
}
