{
    "asset" : {
        "generator" : "Khronos glTF Blender I/O v3.2.40",
        "version" : "2.0"
    },
    "scene" : 0,
    "scenes" : [
        {
            "extras" : {
                "b_settings" : 1,
                "b_export" : 1,
                "export_path" : "/Users/ronn/Documents/FUN_PROJECTS/blender/room_aframe",
                "s_output" : "exporting..."
            },
            "name" : "Scene",
            "nodes" : [
                0
            ]
        }
    ],
    "nodes" : [
        {
            "mesh" : 0,
            "name" : "cushion",
            "rotation" : [
                0.04457186535000801,
                -0.7325901389122009,
                -0.21772992610931396,
                0.643365204334259
            ],
            "scale" : [
                0.15000002086162567,
                0.15000000596046448,
                0.15000000596046448
            ]
        }
    ],
    "meshes" : [
        {
            "name" : "Cube.008",
            "primitives" : [
                {
                    "attributes" : {
                        "POSITION" : 0,
                        "NORMAL" : 1,
                        "TANGENT" : 2,
                        "TEXCOORD_0" : 3
                    },
                    "indices" : 4
                }
            ]
        }
    ],
    "accessors" : [
        {
            "bufferView" : 0,
            "componentType" : 5126,
            "count" : 1024,
            "max" : [
                0.9583333134651184,
                0.33740323781967163,
                0.9436396956443787
            ],
            "min" : [
                -0.9583333730697632,
                -0.33740323781967163,
                -0.9730269312858582
            ],
            "type" : "VEC3"
        },
        {
            "bufferView" : 1,
            "componentType" : 5126,
            "count" : 1024,
            "type" : "VEC3"
        },
        {
            "bufferView" : 2,
            "componentType" : 5126,
            "count" : 1024,
            "type" : "VEC4"
        },
        {
            "bufferView" : 3,
            "componentType" : 5126,
            "count" : 1024,
            "type" : "VEC2"
        },
        {
            "bufferView" : 4,
            "componentType" : 5123,
            "count" : 1536,
            "type" : "SCALAR"
        }
    ],
    "bufferViews" : [
        {
            "buffer" : 0,
            "byteLength" : 12288,
            "byteOffset" : 0
        },
        {
            "buffer" : 0,
            "byteLength" : 12288,
            "byteOffset" : 12288
        },
        {
            "buffer" : 0,
            "byteLength" : 16384,
            "byteOffset" : 24576
        },
        {
            "buffer" : 0,
            "byteLength" : 8192,
            "byteOffset" : 40960
        },
        {
            "buffer" : 0,
            "byteLength" : 3072,
            "byteOffset" : 49152
        }
    ],
    "buffers" : [
        {
            "byteLength" : 52224,
            "uri" : "data:application/octet-stream;base64,"
        }
    ]
}
