{
    "asset" : {
        "generator" : "Khronos glTF Blender I/O v3.2.40",
        "version" : "2.0"
    },
    "scene" : 0,
    "scenes" : [
        {
            "extras" : {
                "b_settings" : 1,
                "b_export" : 1,
                "export_path" : "/Users/ronn/Documents/FUN_PROJECTS/blender/room_aframe",
                "s_output" : "exporting..."
            },
            "name" : "Scene",
            "nodes" : [
                0
            ]
        }
    ],
    "nodes" : [
        {
            "mesh" : 0,
            "name" : "HOOK.001",
            "rotation" : [
                0.7071068286895752,
                0,
                0,
                0.7071068286895752
            ],
            "scale" : [
                0.02691522240638733,
                0.02691522240638733,
                0.02691522240638733
            ]
        }
    ],
    "meshes" : [
        {
            "name" : "Cube.020",
            "primitives" : [
                {
                    "attributes" : {
                        "POSITION" : 0,
                        "NORMAL" : 1,
                        "TEXCOORD_0" : 2
                    },
                    "indices" : 3
                }
            ]
        }
    ],
    "accessors" : [
        {
            "bufferView" : 0,
            "componentType" : 5126,
            "count" : 12500,
            "max" : [
                2.6149587631225586,
                1.0139271020889282,
                3.0781333446502686
            ],
            "min" : [
                -4.67238187789917,
                -1.0010906457901,
                -1.8963816165924072
            ],
            "type" : "VEC3"
        },
        {
            "bufferView" : 1,
            "componentType" : 5126,
            "count" : 12500,
            "type" : "VEC3"
        },
        {
            "bufferView" : 2,
            "componentType" : 5126,
            "count" : 12500,
            "type" : "VEC2"
        },
        {
            "bufferView" : 3,
            "componentType" : 5123,
            "count" : 21576,
            "type" : "SCALAR"
        }
    ],
    "bufferViews" : [
        {
            "buffer" : 0,
            "byteLength" : 150000,
            "byteOffset" : 0
        },
        {
            "buffer" : 0,
            "byteLength" : 150000,
            "byteOffset" : 150000
        },
        {
            "buffer" : 0,
            "byteLength" : 100000,
            "byteOffset" : 300000
        },
        {
            "buffer" : 0,
            "byteLength" : 43152,
            "byteOffset" : 400000
        }
    ],
    "buffers" : [
        {
            "byteLength" : 443152,
            "uri" : "data:application/octet-stream;base64,"
        }
    ]
}
