{
    "asset" : {
        "generator" : "Khronos glTF Blender I/O v3.2.40",
        "version" : "2.0"
    },
    "scene" : 0,
    "scenes" : [
        {
            "extras" : {
                "b_settings" : 1,
                "b_export" : 1,
                "export_path" : "/Users/ronn/Documents/FUN_PROJECTS/blender/room_aframe",
                "s_output" : "exporting..."
            },
            "name" : "Scene",
            "nodes" : [
                0
            ]
        }
    ],
    "nodes" : [
        {
            "mesh" : 0,
            "name" : "LEDGE"
        }
    ],
    "materials" : [
        {
            "doubleSided" : true,
            "name" : "Material.003",
            "pbrMetallicRoughness" : {
                "baseColorFactor" : [
                    0.8000000715255737,
                    0.7412967085838318,
                    0.45426812767982483,
                    1
                ],
                "metallicFactor" : 0,
                "roughnessFactor" : 0.5
            }
        }
    ],
    "meshes" : [
        {
            "name" : "Cube.018",
            "primitives" : [
                {
                    "attributes" : {
                        "POSITION" : 0,
                        "NORMAL" : 1,
                        "TANGENT" : 2,
                        "TEXCOORD_0" : 3
                    },
                    "indices" : 4,
                    "material" : 0
                }
            ]
        }
    ],
    "accessors" : [
        {
            "bufferView" : 0,
            "componentType" : 5126,
            "count" : 153,
            "max" : [
                0.19815754890441895,
                0.04092419147491455,
                0.6442143321037292
            ],
            "min" : [
                -0.1981574296951294,
                -0.04092422127723694,
                -0.6442143321037292
            ],
            "type" : "VEC3"
        },
        {
            "bufferView" : 1,
            "componentType" : 5126,
            "count" : 153,
            "type" : "VEC3"
        },
        {
            "bufferView" : 2,
            "componentType" : 5126,
            "count" : 153,
            "type" : "VEC4"
        },
        {
            "bufferView" : 3,
            "componentType" : 5126,
            "count" : 153,
            "type" : "VEC2"
        },
        {
            "bufferView" : 4,
            "componentType" : 5123,
            "count" : 528,
            "type" : "SCALAR"
        }
    ],
    "bufferViews" : [
        {
            "buffer" : 0,
            "byteLength" : 1836,
            "byteOffset" : 0
        },
        {
            "buffer" : 0,
            "byteLength" : 1836,
            "byteOffset" : 1836
        },
        {
            "buffer" : 0,
            "byteLength" : 2448,
            "byteOffset" : 3672
        },
        {
            "buffer" : 0,
            "byteLength" : 1224,
            "byteOffset" : 6120
        },
        {
            "buffer" : 0,
            "byteLength" : 1056,
            "byteOffset" : 7344
        }
    ],
    "buffers" : [
        {
            "byteLength" : 8400,
            "uri" : "data:application/octet-stream;base64,"
        }
    ]
}
