{
    "asset" : {
        "generator" : "Khronos glTF Blender I/O v3.2.40",
        "version" : "2.0"
    },
    "scene" : 0,
    "scenes" : [
        {
            "extras" : {
                "b_settings" : 1,
                "b_export" : 1,
                "export_path" : "/Users/ronn/Documents/FUN_PROJECTS/blender/room_aframe",
                "s_output" : "exporting..."
            },
            "name" : "Scene",
            "nodes" : [
                0
            ]
        }
    ],
    "nodes" : [
        {
            "mesh" : 0,
            "name" : "PICTUR"
        }
    ],
    "materials" : [
        {
            "doubleSided" : true,
            "name" : "Material.003",
            "pbrMetallicRoughness" : {
                "baseColorFactor" : [
                    0.8000000715255737,
                    0.7412967085838318,
                    0.45426812767982483,
                    1
                ],
                "metallicFactor" : 0,
                "roughnessFactor" : 0.5
            }
        }
    ],
    "meshes" : [
        {
            "name" : "Cube.013",
            "primitives" : [
                {
                    "attributes" : {
                        "POSITION" : 0,
                        "NORMAL" : 1,
                        "TANGENT" : 2,
                        "TEXCOORD_0" : 3
                    },
                    "indices" : 4,
                    "material" : 0
                }
            ]
        }
    ],
    "accessors" : [
        {
            "bufferView" : 0,
            "componentType" : 5126,
            "count" : 1758,
            "max" : [
                0.660934567451477,
                0.3585525155067444,
                0.013814760372042656
            ],
            "min" : [
                -0.6590656042098999,
                -0.3618186116218567,
                -0.026576165109872818
            ],
            "type" : "VEC3"
        },
        {
            "bufferView" : 1,
            "componentType" : 5126,
            "count" : 1758,
            "type" : "VEC3"
        },
        {
            "bufferView" : 2,
            "componentType" : 5126,
            "count" : 1758,
            "type" : "VEC4"
        },
        {
            "bufferView" : 3,
            "componentType" : 5126,
            "count" : 1758,
            "type" : "VEC2"
        },
        {
            "bufferView" : 4,
            "componentType" : 5123,
            "count" : 2664,
            "type" : "SCALAR"
        }
    ],
    "bufferViews" : [
        {
            "buffer" : 0,
            "byteLength" : 21096,
            "byteOffset" : 0
        },
        {
            "buffer" : 0,
            "byteLength" : 21096,
            "byteOffset" : 21096
        },
        {
            "buffer" : 0,
            "byteLength" : 28128,
            "byteOffset" : 42192
        },
        {
            "buffer" : 0,
            "byteLength" : 14064,
            "byteOffset" : 70320
        },
        {
            "buffer" : 0,
            "byteLength" : 5328,
            "byteOffset" : 84384
        }
    ],
    "buffers" : [
        {
            "byteLength" : 89712,
            "uri" : "data:application/octet-stream;base64,"
        }
    ]
}
